<svg fill="current" stroke="current" xmlns="http://www.w3.org/2000/svg" viewBox="0 0 228.476 48.153">
  <path id="Goosfraba_black" data-name="Goosfraba black" d="M51.295-72.532h-.852a1.4,1.4,0,0,0-1.454,1.444L48.935-68.8a6.917,6.917,0,0,0-.5-.668,9.749,9.749,0,0,0-2.26-1.918,11.169,11.169,0,0,0-2.9-1.254,12.322,12.322,0,0,0-3.3-.443,11.863,11.863,0,0,0-4.947,1.043,12.369,12.369,0,0,0-3.976,2.86,13.081,13.081,0,0,0-2.622,4.254,14.409,14.409,0,0,0-.932,5.172,13.866,13.866,0,0,0,.959,5.152,13.4,13.4,0,0,0,2.619,4.2,12.254,12.254,0,0,0,3.952,2.835,11.863,11.863,0,0,0,4.947,1.043,11.854,11.854,0,0,0,5.935-1.512,8.32,8.32,0,0,0,2.883-2.66v.614a9.725,9.725,0,0,1-.739,3.9,8.566,8.566,0,0,1-1.95,2.833,7.981,7.981,0,0,1-2.8,1.708,8.315,8.315,0,0,1-5.238.291,12.592,12.592,0,0,1-1.976-.733q-.6-.25-1.043-.448a1,1,0,0,0-1.336.507,3.23,3.23,0,0,1-.175.283c-.1.145-.211.307-.338.484q-.216.294-.373.56a1.139,1.139,0,0,0-.216.583c0,.608.62.971.835,1.1A16.362,16.362,0,0,0,36.532-37.7a12.452,12.452,0,0,0,3.639.5,14.062,14.062,0,0,0,5.074-.882,10.521,10.521,0,0,0,3.951-2.67,12.321,12.321,0,0,0,2.55-4.42,18.73,18.73,0,0,0,.9-6.058V-71.078A1.292,1.292,0,0,0,51.295-72.532ZM48.889-59.754a9.968,9.968,0,0,1-.694,3.739A9.826,9.826,0,0,1,46.3-53a8.754,8.754,0,0,1-2.812,2.025,8.628,8.628,0,0,1-7.01-.022,8.855,8.855,0,0,1-2.766-2.05,9.691,9.691,0,0,1-1.842-3.017,10.118,10.118,0,0,1-.671-3.694,10.694,10.694,0,0,1,.648-3.726,9.551,9.551,0,0,1,1.818-3.063,8.621,8.621,0,0,1,2.786-2.072,8.19,8.19,0,0,1,3.516-.759,8.352,8.352,0,0,1,3.543.76A8.83,8.83,0,0,1,46.35-66.54a9.7,9.7,0,0,1,1.868,3.064A10.364,10.364,0,0,1,48.889-59.754Zm84.778,5.612a6.872,6.872,0,0,1-.754,3.242,7.109,7.109,0,0,1-2.033,2.38,9.37,9.37,0,0,1-2.894,1.448,11.724,11.724,0,0,1-3.439.5,10.672,10.672,0,0,1-5.36-1.362,7.429,7.429,0,0,1-3.383-4.047,1.328,1.328,0,0,1,.818-1.778l.917-.437a1.262,1.262,0,0,1,1.759.729l.125.2a4.481,4.481,0,0,0,.97,1.3,6.041,6.041,0,0,0,1.33.933,7.943,7.943,0,0,0,1.494.593,5.02,5.02,0,0,0,1.33.209,7.46,7.46,0,0,0,1.794-.238A6.5,6.5,0,0,0,128.1-51.2a4.276,4.276,0,0,0,1.314-1.225,2.821,2.821,0,0,0,.5-1.671,2.635,2.635,0,0,0-.492-1.589,5.412,5.412,0,0,0-1.341-1.3,7.763,7.763,0,0,0-1.87-.923c-.714-.242-1.425-.449-2.114-.613a15.832,15.832,0,0,1-2.79-.982,9.942,9.942,0,0,1-2.387-1.522,7.41,7.41,0,0,1-1.68-2.107,5.776,5.776,0,0,1-.654-2.743,6.757,6.757,0,0,1,2.255-5.272,8.512,8.512,0,0,1,5.862-1.994,10.35,10.35,0,0,1,4.766,1.077,8.478,8.478,0,0,1,3.5,3.565,1.479,1.479,0,0,1,.2.962,1.283,1.283,0,0,1-.658.892l-.906.554a1.253,1.253,0,0,1-1.707-.116,1.6,1.6,0,0,1-.243-.313c-.052-.088-.114-.2-.183-.338a5.857,5.857,0,0,0-1.968-1.938,5.343,5.343,0,0,0-2.8-.736A4.9,4.9,0,0,0,121.5-68.5a3.2,3.2,0,0,0-1.213,2.632,2.191,2.191,0,0,0,.37,1.3,4.265,4.265,0,0,0,1.043,1.042,5.918,5.918,0,0,0,1.421.745c.543.2,1.062.362,1.54.489C130.636-60.775,133.667-58.031,133.667-54.142ZM150.4-83.8v.852a1.377,1.377,0,0,1-.408,1,1.38,1.38,0,0,1-1,.407,4.338,4.338,0,0,0-3.238,1.171,4.83,4.83,0,0,0-1.17,3.539v4.209H148.6a1.313,1.313,0,0,1,1.4,1.453v.651a1.325,1.325,0,0,1-1.4,1.5h-4.007v20.492a1.285,1.285,0,0,1-.5,1.06,1.609,1.609,0,0,1-1,.344h-.952a1.267,1.267,0,0,1-1.353-1.4V-69.023h-2.706a1.346,1.346,0,0,1-1.453-1.5v-.651a1.323,1.323,0,0,1,1.453-1.453h2.706V-76.94a8.562,8.562,0,0,1,2.155-6.175,7.926,7.926,0,0,1,5.962-2.244A1.393,1.393,0,0,1,150.4-83.8Zm20.416,13.1a1.116,1.116,0,0,1,.008,1.268l-.762,1.118a1.113,1.113,0,0,1-.983.471,1.425,1.425,0,0,1-.694-.2,9.083,9.083,0,0,0-1.568-.782,4.835,4.835,0,0,0-4.121.249,6.532,6.532,0,0,0-1.875,1.594,7.5,7.5,0,0,0-1.252,2.294,8.166,8.166,0,0,0-.452,2.683v13.528a1.244,1.244,0,0,1-1.353,1.354h-1.052a1.221,1.221,0,0,1-1.353-1.3v-22.5c0-1.448.876-1.6,1.253-1.6h1.253a.985.985,0,0,1,.986.54,2.851,2.851,0,0,1,.213.808l.021,1.1a6.758,6.758,0,0,1,1.764-1.648,7.88,7.88,0,0,1,4.38-1.2,9.487,9.487,0,0,1,2.607.418,8.006,8.006,0,0,1,2.364,1.068A4.367,4.367,0,0,1,170.817-70.7Zm24.427-1.828h-1.052a1.168,1.168,0,0,0-1.089.47,2.322,2.322,0,0,0-.265.974l-.053,2.25a6.669,6.669,0,0,0-.447-.621,9.256,9.256,0,0,0-2.16-1.923,10.446,10.446,0,0,0-2.828-1.258,12.057,12.057,0,0,0-3.279-.443,11.868,11.868,0,0,0-4.948,1.043,12.391,12.391,0,0,0-3.976,2.86,13.078,13.078,0,0,0-2.621,4.254,14.387,14.387,0,0,0-.932,5.172,13.838,13.838,0,0,0,.959,5.152,13.436,13.436,0,0,0,2.619,4.2,12.272,12.272,0,0,0,3.951,2.835,11.868,11.868,0,0,0,4.948,1.043,11.05,11.05,0,0,0,6-1.623,8.294,8.294,0,0,0,2.664-2.673v2.341a1.75,1.75,0,0,0,.194.939,1.183,1.183,0,0,0,1.059.415h1.2a1.175,1.175,0,0,0,1.3-1.253v-22.7C196.5-71.988,196.029-72.532,195.244-72.532Zm-2.506,12.778a10.635,10.635,0,0,1-.647,3.749,9.556,9.556,0,0,1-1.795,3.016,8.275,8.275,0,0,1-2.732,2.019,8.234,8.234,0,0,1-3.493.736,8.006,8.006,0,0,1-3.489-.759,8.855,8.855,0,0,1-2.766-2.05,9.675,9.675,0,0,1-1.843-3.017,10.148,10.148,0,0,1-.67-3.694,10.7,10.7,0,0,1,.648-3.727,9.555,9.555,0,0,1,1.817-3.062,8.625,8.625,0,0,1,2.787-2.072,8.187,8.187,0,0,1,3.516-.759,8.038,8.038,0,0,1,3.488.758,8.41,8.41,0,0,1,2.735,2.069,9.816,9.816,0,0,1,1.8,3.066A10.7,10.7,0,0,1,192.738-59.754ZM224.562-69.2a12.146,12.146,0,0,0-3.875-2.836,11.3,11.3,0,0,0-4.8-1.045,9.8,9.8,0,0,0-6.007,1.794,11.936,11.936,0,0,0-2.711,2.791V-83.854a1.527,1.527,0,0,0-.27-.953,1.282,1.282,0,0,0-1.083-.4h-1.052a1.279,1.279,0,0,0-1.082.4,1.5,1.5,0,0,0-.271.954v35.273a1.713,1.713,0,0,0,.256,1.009,1.248,1.248,0,0,0,1.1.445h1a1.313,1.313,0,0,0,1.4-1.454v-1.768l.2.249a8.849,8.849,0,0,0,1.821,1.639,10.847,10.847,0,0,0,2.771,1.336,12.54,12.54,0,0,0,3.926.549,11.3,11.3,0,0,0,4.8-1.044,12.155,12.155,0,0,0,3.875-2.837,13.7,13.7,0,0,0,2.593-4.2,13.9,13.9,0,0,0,.958-5.151,14.109,14.109,0,0,0-.958-5.177A13.634,13.634,0,0,0,224.562-69.2Zm-.258,9.373a9.973,9.973,0,0,1-.7,3.706,9.946,9.946,0,0,1-1.868,3.037A8.981,8.981,0,0,1,219-51.039a7.674,7.674,0,0,1-6.621,0,9.287,9.287,0,0,1-2.772-2.049,9.671,9.671,0,0,1-1.89-3.035,9.958,9.958,0,0,1-.7-3.706,9.967,9.967,0,0,1,.7-3.707,9.689,9.689,0,0,1,1.89-3.034,9.288,9.288,0,0,1,2.772-2.049,7.539,7.539,0,0,1,3.31-.755,7.54,7.54,0,0,1,3.311.755,8.994,8.994,0,0,1,2.744,2.046,9.979,9.979,0,0,1,1.868,3.037A9.986,9.986,0,0,1,224.3-59.829Zm30.413-12.7h-1.051a1.17,1.17,0,0,0-1.089.47,2.3,2.3,0,0,0-.265.974l-.053,2.25a6.536,6.536,0,0,0-.448-.62,9.178,9.178,0,0,0-2.16-1.924,10.487,10.487,0,0,0-2.827-1.258,12.068,12.068,0,0,0-3.279-.443A11.868,11.868,0,0,0,238.6-72.04a12.369,12.369,0,0,0-3.976,2.86A13.078,13.078,0,0,0,232-64.926a14.409,14.409,0,0,0-.932,5.172,13.865,13.865,0,0,0,.958,5.152,13.406,13.406,0,0,0,2.62,4.2,12.25,12.25,0,0,0,3.951,2.835,11.868,11.868,0,0,0,4.948,1.043,11.046,11.046,0,0,0,6-1.623,8.294,8.294,0,0,0,2.664-2.673v2.341a1.751,1.751,0,0,0,.193.939,1.182,1.182,0,0,0,1.059.415h1.2a1.175,1.175,0,0,0,1.3-1.253v-22.7C255.97-71.988,255.5-72.532,254.717-72.532Zm-2.5,12.778a10.635,10.635,0,0,1-.648,3.749,9.561,9.561,0,0,1-1.794,3.016,8.262,8.262,0,0,1-2.733,2.019,8.227,8.227,0,0,1-3.492.736,8.006,8.006,0,0,1-3.489-.759,8.855,8.855,0,0,1-2.766-2.05,9.675,9.675,0,0,1-1.843-3.017,10.139,10.139,0,0,1-.671-3.694,10.717,10.717,0,0,1,.648-3.726,9.552,9.552,0,0,1,1.818-3.063,8.632,8.632,0,0,1,2.786-2.072,8.194,8.194,0,0,1,3.517-.759,8.027,8.027,0,0,1,3.487.758,8.417,8.417,0,0,1,2.736,2.069,9.842,9.842,0,0,1,1.8,3.066A10.726,10.726,0,0,1,252.212-59.754Zm-140.1-.275c0,7.494-4.95,12.53-12.316,12.53-7.521,0-11.857-5.856-16.05-11.519-3.865-5.218-7.515-10.148-13.332-10.148-6.578,0-8.921,4.72-8.921,9.137s2.343,9.136,8.921,9.136a10.543,10.543,0,0,0,7.156-2.9,1.7,1.7,0,0,1,2.318.066,1.694,1.694,0,0,1-.07,2.476,13.9,13.9,0,0,1-9.4,3.756C63.05-47.5,58.1-52.535,58.1-60.029S63.05-72.56,70.416-72.56c7.527,0,11.864,5.858,16.059,11.523,3.863,5.216,7.512,10.144,13.323,10.144,6.578,0,8.922-4.72,8.922-9.136s-2.344-9.137-8.922-9.137a10.541,10.541,0,0,0-7.156,2.907,1.7,1.7,0,0,1-2.318-.065,1.694,1.694,0,0,1,.07-2.476,13.892,13.892,0,0,1,9.4-3.76C107.164-72.56,112.114-67.524,112.114-60.029Z" transform="translate(-27.494 85.359)"/>
</svg>
